<?xml version="1.0" standalone="no"?>
<!DOCTYPE svg PUBLIC "-//W3C//DTD SVG 20010904//EN"
 "http://www.w3.org/TR/2001/REC-SVG-20010904/DTD/svg10.dtd">
<svg version="1.0" xmlns="http://www.w3.org/2000/svg"
 width="382.000000pt" height="382.000000pt" viewBox="0 0 382.000000 382.000000"
 preserveAspectRatio="xMidYMid meet">
<metadata>
Created by potrace 1.14, written by Peter Selinger 2001-2017
</metadata>
<g transform="translate(0.000000,382.000000) scale(0.100000,-0.100000)"
fill="#000000" stroke="none">
<path d="M1631 3537 c-6 -6 -26 -12 -44 -13 -17 -1 -45 -5 -62 -9 -28 -5 -46
-12 -129 -50 -48 -23 -81 -57 -126 -130 -13 -22 -27 -42 -30 -45 -53 -47 -74
-114 -51 -159 5 -9 11 -50 12 -91 1 -41 13 -118 27 -170 13 -52 26 -104 28
-114 2 -11 8 -24 14 -30 15 -15 12 -30 -13 -60 -13 -14 -36 -51 -51 -81 -15
-30 -32 -55 -37 -55 -5 0 -9 -4 -9 -10 0 -5 -13 -39 -30 -75 -16 -36 -30 -71
-30 -78 0 -7 -5 -18 -11 -24 -6 -6 -12 -17 -14 -24 -8 -37 -18 -59 -26 -59 -5
0 -6 -7 -2 -15 3 -9 -2 -24 -12 -35 -9 -10 -14 -23 -11 -28 9 -15 -5 -43 -18
-35 -7 4 -6 1 1 -7 10 -11 10 -17 -3 -31 -12 -13 -13 -22 -5 -37 7 -13 7 -22
-1 -30 -7 -7 -8 -12 -2 -12 5 0 9 -16 10 -35 0 -18 -3 -32 -8 -29 -7 5 -54
-39 -105 -97 -4 -5 -30 -31 -58 -58 -27 -27 -55 -55 -60 -63 -59 -76 -74 -126
-69 -239 3 -81 4 -86 24 -144 28 -84 83 -155 133 -174 23 -9 175 -7 214 2 20
5 21 3 17 -46 -5 -66 -9 -85 -16 -92 -9 -10 1 -166 12 -180 5 -6 7 -15 3 -18
-3 -4 1 -15 10 -25 10 -10 14 -22 10 -25 -3 -4 4 -19 18 -34 15 -17 17 -22 5
-13 -18 14 -19 14 -7 -7 6 -13 16 -23 21 -23 6 0 9 -3 8 -7 -4 -13 43 -114 62
-133 3 -3 11 -17 19 -32 8 -15 23 -37 33 -48 10 -11 15 -20 11 -20 -4 0 0 -5
10 -11 9 -5 17 -14 17 -19 0 -5 5 -21 12 -37 6 -15 13 -36 14 -45 2 -9 15 -36
28 -60 13 -24 24 -47 25 -53 1 -5 7 -10 14 -11 34 -3 38 -5 31 -16 -6 -10 -5
-10 7 -1 8 6 27 10 42 9 15 -2 27 1 27 6 0 5 9 7 20 3 15 -5 18 -3 14 8 -3 8
2 17 10 20 9 4 16 13 16 21 0 8 5 18 12 22 7 4 8 3 4 -4 -4 -7 -2 -12 3 -12 6
0 12 6 12 13 7 62 7 87 -1 87 -5 0 -7 9 -5 20 2 11 0 20 -5 20 -5 0 -7 7 -4
15 4 9 0 15 -8 15 -8 0 -15 6 -16 13 -2 29 -9 45 -24 61 -10 9 -14 24 -11 33
4 10 2 14 -5 9 -6 -3 -13 2 -16 12 -4 10 -22 36 -41 58 -19 21 -38 47 -41 57
-3 11 -15 28 -25 38 -10 10 -19 28 -19 39 0 11 -5 20 -11 20 -6 0 -8 7 -5 16
3 8 2 13 -3 10 -11 -7 -23 22 -14 36 3 6 1 8 -4 5 -14 -9 -35 82 -39 171 -2
39 -8 80 -14 90 -11 16 -11 16 -6 0 3 -10 1 -20 -4 -23 -6 -4 -10 -1 -10 5 0
6 -7 27 -16 48 -25 55 -25 61 4 69 15 3 38 13 50 21 20 13 25 13 34 1 8 -11 9
-10 4 3 -3 10 -2 18 2 18 11 0 87 74 105 101 21 32 38 107 25 115 -5 3 -7 12
-4 20 6 17 -42 156 -58 166 -8 5 -7 14 2 29 12 19 12 21 -3 16 -13 -6 -15 -3
-10 16 5 18 4 19 -5 7 -8 -10 -13 -11 -16 -3 -3 6 -14 21 -25 34 -18 21 -23
34 -20 51 0 4 -6 5 -15 1 -13 -5 -15 -1 -9 18 4 16 3 20 -3 11 -7 -11 -16 -7
-43 17 -18 17 -38 31 -44 31 -13 0 -11 116 3 161 72 221 70 217 154 382 11 22
35 61 54 88 35 47 37 49 84 48 33 -1 59 5 83 20 19 11 43 21 54 21 11 0 37 11
57 25 20 13 60 34 89 46 28 13 57 26 62 30 23 16 86 49 95 49 6 0 10 -5 10
-11 0 -5 -4 -8 -9 -5 -5 3 -11 -1 -15 -9 -3 -8 -1 -17 3 -20 5 -3 7 -13 4 -23
-3 -11 8 -29 31 -50 20 -18 39 -45 42 -60 4 -15 15 -42 26 -60 10 -17 17 -33
17 -35 -3 -8 75 -161 105 -206 20 -29 36 -57 36 -61 0 -5 3 -10 8 -12 4 -1 25
-25 47 -53 22 -27 56 -67 77 -87 21 -21 38 -41 38 -45 0 -5 9 -14 20 -21 14
-9 20 -23 20 -50 0 -20 9 -54 20 -75 24 -44 13 -83 -20 -72 -11 4 -22 0 -28
-10 -5 -9 -12 -16 -16 -15 -17 4 -96 -76 -110 -112 -9 -21 -20 -38 -26 -38 -5
0 -7 -7 -4 -15 4 -8 1 -15 -6 -15 -7 0 -10 -8 -7 -20 3 -11 1 -18 -4 -15 -5 3
-8 -17 -8 -45 1 -29 6 -50 13 -50 6 0 6 -4 -2 -9 -17 -10 -16 -13 3 -50 11
-23 12 -31 2 -35 -9 -3 -7 -9 5 -19 10 -8 15 -17 12 -20 -9 -9 6 -48 17 -42 5
4 9 1 9 -4 0 -6 -6 -11 -12 -11 -7 0 -1 -12 15 -25 26 -23 37 -43 17 -30 -17
11 -11 -3 13 -28 12 -12 24 -29 26 -37 12 -45 11 -67 -3 -79 -9 -8 -16 -18
-16 -24 0 -6 -9 -29 -19 -51 -47 -99 -72 -161 -126 -306 -55 -148 -58 -160
-59 -252 -1 -96 -1 -98 30 -129 25 -25 41 -32 83 -34 28 -2 51 0 51 6 0 5 6 9
13 9 21 0 54 44 62 81 4 19 17 45 30 59 31 34 47 111 29 145 -12 24 -10 29 9
26 5 -1 6 3 2 9 -4 6 -1 17 5 25 10 12 10 15 -1 15 -9 0 -10 3 -3 8 10 7 21
29 22 46 0 5 6 13 14 17 9 6 10 9 1 9 -7 0 -10 7 -7 15 4 8 10 12 16 9 5 -3 9
2 8 12 -4 38 0 55 12 48 7 -4 8 -3 4 5 -4 6 0 24 10 39 10 15 19 34 21 42 1 8
6 16 12 18 5 2 7 10 4 19 -4 9 1 21 9 27 9 7 18 23 20 36 3 23 9 26 73 33 86
9 144 2 161 -21 7 -9 25 -42 40 -72 15 -30 37 -68 48 -85 12 -16 19 -30 17
-30 -6 0 90 -198 127 -262 20 -35 42 -63 49 -63 7 0 13 -4 13 -9 0 -12 57 -25
95 -22 74 7 121 69 112 149 -3 24 -14 56 -25 71 -12 14 -33 50 -47 78 -15 29
-30 53 -34 53 -4 0 -7 9 -8 21 -1 11 -10 33 -20 47 -9 15 -28 49 -41 77 -13
27 -29 53 -37 57 -7 4 -16 23 -19 43 -4 19 -13 38 -20 42 -7 5 -21 23 -30 41
-10 20 -21 30 -29 26 -12 -7 -6 0 51 62 41 45 74 117 78 172 4 54 -37 244 -56
262 -3 3 -10 14 -16 25 -27 49 -41 70 -63 94 -13 14 -21 19 -17 11 4 -8 0 -6
-8 4 -9 11 -16 16 -16 10 0 -5 -5 -1 -11 9 -5 9 -17 17 -24 17 -8 0 -15 4 -15
8 0 10 -56 16 -143 14 -43 0 -65 3 -61 10 9 14 -17 59 -30 51 -6 -3 -8 -3 -4
2 4 4 2 15 -5 23 -9 13 -9 14 1 8 15 -9 15 -4 -1 26 -7 14 -17 23 -23 21 -6
-2 -17 4 -25 14 -13 16 -12 17 4 4 16 -12 17 -12 11 5 -4 10 -16 27 -28 36
-12 10 -15 18 -8 18 10 0 10 4 0 20 -7 11 -19 18 -26 15 -7 -3 -10 0 -7 5 10
17 -6 34 -17 19 -7 -11 -8 -10 -4 4 3 10 -2 30 -11 45 -22 33 -33 42 -49 35
-6 -2 -15 1 -20 8 -5 8 -3 10 6 4 8 -5 11 -4 6 3 -4 6 -13 9 -20 6 -13 -5 -31
24 -21 34 3 3 5 0 5 -6 0 -7 5 -12 11 -12 8 0 8 5 -1 15 -7 8 -16 12 -21 10
-10 -7 -49 25 -49 40 0 5 4 3 10 -5 5 -8 11 -12 13 -10 2 3 -7 20 -20 39 -12
19 -23 29 -23 22 0 -7 -5 -9 -11 -6 -6 4 -8 13 -5 21 3 8 0 13 -6 11 -17 -3
-107 175 -91 180 13 5 6 33 -9 33 -5 0 -6 -4 -3 -10 3 -5 4 -10 1 -10 -3 0
-11 15 -19 33 -41 95 -44 104 -26 100 14 -4 11 4 -16 46 -30 48 -41 55 -80 54
-16 -1 -24 1 -17 3 6 3 10 9 7 14 -3 5 1 32 8 62 13 53 14 128 2 190 -3 18 -8
44 -10 59 -2 14 -11 38 -20 55 -8 16 -15 37 -15 47 0 9 -3 17 -8 17 -4 0 -13
13 -20 29 -25 57 -145 161 -195 168 -11 2 -25 7 -31 12 -10 8 -62 20 -112 27
-12 1 -27 -3 -33 -9z m162 -217 c9 -11 17 -22 17 -26 0 -4 14 -19 30 -33 37
-32 70 -140 70 -230 0 -65 -1 -66 -80 -107 -30 -15 -63 -34 -72 -42 -10 -8
-18 -12 -18 -8 0 4 -28 -8 -62 -26 -61 -33 -114 -51 -190 -63 -32 -5 -39 -2
-54 19 -9 14 -20 43 -25 63 -5 21 -12 47 -15 58 -9 37 -23 185 -19 206 2 11
17 33 32 48 39 40 53 58 47 64 -5 5 48 47 59 47 3 0 22 -16 41 -35 41 -39 72
-44 116 -18 32 18 66 85 55 104 -12 19 47 1 68 -21z m-625 -1630 c38 -39 102
-153 102 -182 0 -18 -58 -68 -78 -68 -7 0 -10 -5 -6 -12 4 -7 3 -8 -4 -4 -15
9 -92 -12 -92 -25 0 -6 -4 -7 -10 -4 -5 3 -10 1 -10 -4 0 -6 -5 -11 -11 -11
-5 0 -7 5 -4 10 3 6 -1 10 -10 10 -10 0 -13 -5 -9 -12 6 -10 4 -10 -8 0 -9 7
-19 9 -22 4 -3 -5 -20 -7 -38 -3 -26 5 -35 14 -44 40 -6 18 -17 37 -25 42 -10
6 -10 9 -1 9 8 0 12 17 12 53 0 50 3 56 53 109 48 50 101 79 160 87 4 1 24
-17 45 -39z m1655 -53 c8 -13 25 -56 37 -95 l21 -73 -23 -32 c-37 -52 -80 -87
-123 -99 -22 -6 -45 -15 -51 -19 -14 -11 -139 -3 -163 10 -27 15 -60 92 -70
161 -7 56 -6 62 19 91 18 22 37 33 60 36 37 4 120 -16 120 -29 0 -4 9 -8 20
-8 24 0 70 21 70 32 0 13 39 48 54 48 7 0 21 -10 29 -23z m-1922 -59 c-3 -21
-6 -26 -9 -15 -3 17 3 47 11 47 2 0 1 -15 -2 -32z"/>
<path d="M1391 3064 c0 -11 3 -14 6 -6 3 7 2 16 -1 19 -3 4 -6 -2 -5 -13z"/>
<path d="M2192 2700 c14 -42 27 -46 14 -5 -6 19 -14 35 -18 35 -4 0 -2 -14 4
-30z"/>
<path d="M2253 2565 c0 -8 4 -15 9 -15 4 0 8 4 8 9 0 6 -4 12 -8 15 -5 3 -9
-1 -9 -9z"/>
<path d="M2302 2470 c7 -10 14 -18 15 -16 6 6 -9 36 -18 36 -5 0 -4 -9 3 -20z"/>
<path d="M823 1119 c-15 -17 -38 -41 -50 -52 -13 -11 -23 -24 -23 -29 0 -5
-11 -21 -24 -35 -14 -14 -30 -47 -36 -72 -6 -25 -22 -70 -36 -100 -13 -29 -22
-57 -19 -61 3 -5 1 -11 -5 -15 -5 -3 -10 -17 -10 -31 0 -13 -5 -24 -11 -24 -6
0 -9 -7 -5 -15 3 -8 2 -15 -2 -15 -4 0 -8 -12 -9 -26 0 -15 -5 -29 -11 -33 -5
-3 -12 -17 -16 -31 -6 -20 -5 -22 4 -10 10 13 11 12 6 -3 -3 -10 -6 -21 -6
-23 0 -3 -6 -2 -12 2 -10 5 -10 4 -2 -5 7 -7 9 -22 6 -33 -4 -15 -7 -17 -13
-6 -9 14 -12 2 -11 -60 0 -18 -4 -30 -9 -27 -14 9 -11 -8 12 -63 22 -54 49
-72 106 -74 43 -1 89 35 103 80 6 20 20 54 31 74 11 21 19 54 18 75 -1 35 54
255 70 278 4 6 13 29 21 53 15 48 51 92 75 92 10 0 30 9 46 21 37 26 39 68 4
100 -13 13 -25 29 -25 35 0 6 -11 23 -25 38 -19 21 -33 26 -69 26 -37 0 -49
-5 -73 -31z"/>
</g>
</svg>
