<svg width="322" height="322" viewBox="0 0 322 322" fill="none" xmlns="http://www.w3.org/2000/svg">
<path fill-rule="evenodd" clip-rule="evenodd" d="M161 14.75C80.2284 14.75 14.75 80.2284 14.75 161C14.75 241.772 80.2284 307.25 161 307.25C241.772 307.25 307.25 241.772 307.25 161C307.25 80.2284 241.772 14.75 161 14.75ZM13.25 161C13.25 79.3999 79.3999 13.25 161 13.25C242.6 13.25 308.75 79.3999 308.75 161C308.75 242.6 242.6 308.75 161 308.75C79.3999 308.75 13.25 242.6 13.25 161Z" fill="white"/>
<path fill-rule="evenodd" clip-rule="evenodd" d="M161 8.75C76.9146 8.75 8.75 76.9146 8.75 161C8.75 245.085 76.9146 313.25 161 313.25C245.085 313.25 313.25 245.085 313.25 161C313.25 76.9146 245.085 8.75 161 8.75ZM7.25 161C7.25 76.0862 76.0862 7.25 161 7.25C245.914 7.25 314.75 76.0862 314.75 161C314.75 245.914 245.914 314.75 161 314.75C76.0862 314.75 7.25 245.914 7.25 161Z" fill="white"/>
<path opacity="0.65" d="M162 182L134 210L162 238L190 210L162 182Z" fill="white"/>
<path opacity="0.75" d="M134 154L106 182L134 210L162 182L134 154Z" fill="white"/>
<path opacity="0.75" d="M190 154L162 182L190 210L218 182L190 154Z" fill="white"/>
<path opacity="0.85" d="M162 126L134 154L162 182L190 154L162 126Z" fill="white"/>
<path opacity="0.85" d="M218 126L190 154L218 182L246 154L218 126Z" fill="white"/>
<path opacity="0.85" d="M106 126L78 154L106 182L134 154L106 126Z" fill="white"/>
<path opacity="0.95" d="M190 98L162 126L190 154L218 126L190 98Z" fill="white"/>
<path opacity="0.95" d="M134 98L106 126L134 154L162 126L134 98Z" fill="white"/>
<path d="M162 40.5L135.5 67L162 93.5L188.5 67L162 40.5Z" fill="white"/>
<path d="M124.321 67.1348C86.8155 81.8016 60.25 118.298 60.25 161C60.25 216.643 105.357 261.75 161 261.75C216.643 261.75 261.75 216.643 261.75 161C261.75 118.843 235.857 82.7329 199.107 67.7062L197.955 68.8583C234.468 83.5159 260.25 119.247 260.25 161C260.25 215.814 215.814 260.25 161 260.25C106.186 260.25 61.75 215.814 61.75 161C61.75 118.702 88.2101 82.5834 125.481 68.2947L124.321 67.1348Z" fill="white"/>
<path d="M128.982 71.7961C92.4088 84.9251 66.25 119.908 66.25 161C66.25 213.329 108.671 255.75 161 255.75C213.329 255.75 255.75 213.329 255.75 161C255.75 120.457 230.286 85.8618 194.479 72.3345L193.313 73.5006C228.887 86.6426 254.25 120.859 254.25 161C254.25 212.501 212.501 254.25 161 254.25C109.499 254.25 67.75 212.501 67.75 161C67.75 120.308 93.8137 85.7043 130.158 72.9713L128.982 71.7961Z" fill="white"/>
<path d="M37.8995 174.655L33.4682 180.165L38.9785 184.596L43.4098 179.086L37.8995 174.655Z" fill="white"/>
<path d="M282.912 173.792L277.402 178.224L281.834 183.734L287.344 179.302L282.912 173.792Z" fill="white"/>
<path d="M49.1249 227.467L47.6348 224.832L57.8695 219.045L55.9611 215.67L58.1543 214.43L63.4612 223.814L61.2681 225.055L59.3597 221.68L49.1249 227.467Z" fill="white"/>
<path d="M66.9001 240.605C66.0119 241.254 65.1219 241.736 64.23 242.049C63.3433 242.359 62.472 242.48 61.616 242.412C60.7638 242.349 59.9441 242.078 59.157 241.597C58.3751 241.112 57.6402 240.399 56.9524 239.458C56.2646 238.518 55.8083 237.601 55.5834 236.709C55.3638 235.813 55.3516 234.947 55.5467 234.111C55.7456 233.28 56.1297 232.487 56.6988 231.732C57.2679 230.977 57.9992 230.273 58.8927 229.62C60.0857 228.748 61.2658 228.183 62.4331 227.927C63.6094 227.671 64.7398 227.772 65.8242 228.23C66.9085 228.687 67.9099 229.544 68.8282 230.8C69.7428 232.05 70.2496 233.257 70.3487 234.418C70.4517 235.585 70.2013 236.687 69.5975 237.726C68.9975 238.769 68.0984 239.729 66.9001 240.605ZM60.7501 232.194C59.946 232.781 59.3253 233.389 58.888 234.015C58.4597 234.642 58.2455 235.287 58.2452 235.948C58.2502 236.606 58.5025 237.277 59.002 237.96C59.5093 238.654 60.0754 239.103 60.7006 239.307C61.331 239.507 62.0064 239.493 62.7267 239.265C63.456 239.038 64.2228 238.631 65.0269 238.043C66.2356 237.159 67.0217 236.238 67.3849 235.278C67.7482 234.319 67.5513 233.322 66.7944 232.287C66.291 231.598 65.7222 231.151 65.0879 230.946C64.4627 230.741 63.7836 230.75 63.0503 230.971C62.3262 231.194 61.5595 231.602 60.7501 232.194Z" fill="white"/>
<path d="M75.8159 259.499L69.8291 253.863L79.6159 243.467L85.6027 249.104L83.9024 250.91L80.1198 247.349L77.971 249.631L81.4905 252.945L79.7902 254.751L76.2706 251.437L73.747 254.118L77.5296 257.679L75.8159 259.499Z" fill="white"/>
<path d="M82.3498 264.65L79.9858 262.838L88.6711 251.507L95.1663 256.485L93.6574 258.454L89.5262 255.287L87.2865 258.209L91.131 261.156L89.628 263.117L85.7835 260.17L82.3498 264.65Z" fill="white"/>
<path d="M92.892 271.865L90.3617 270.294L97.8936 258.165L104.846 262.482L103.537 264.589L99.1153 261.843L97.1731 264.971L101.288 267.526L99.9847 269.625L95.8697 267.07L92.892 271.865Z" fill="white"/>
<path d="M108.822 280.321L101.434 276.712L107.701 263.883L115.089 267.492L114 269.721L109.332 267.441L107.956 270.258L112.3 272.379L111.211 274.608L106.867 272.486L105.251 275.794L109.92 278.075L108.822 280.321Z" fill="white"/>
<path d="M123.599 273.116C123.054 272.919 122.531 272.851 122.031 272.913C121.54 272.971 121.078 273.146 120.647 273.44C120.221 273.736 119.833 274.14 119.482 274.65C119.132 275.16 118.829 275.767 118.575 276.471C118.232 277.42 118.055 278.273 118.044 279.031C118.041 279.785 118.224 280.429 118.591 280.963C118.961 281.491 119.538 281.897 120.321 282.181C120.866 282.378 121.433 282.513 122.023 282.588C122.618 282.665 123.278 282.706 124.003 282.712L123.139 285.1C122.457 285.13 121.809 285.093 121.196 284.989C120.581 284.891 119.915 284.713 119.198 284.454C117.815 283.953 116.779 283.257 116.091 282.364C115.411 281.468 115.043 280.428 114.986 279.244C114.932 278.055 115.154 276.771 115.652 275.393C116.019 274.377 116.493 273.496 117.074 272.751C117.655 272.006 118.324 271.42 119.08 270.994C119.836 270.569 120.667 270.329 121.573 270.276C122.478 270.222 123.439 270.379 124.455 270.747C125.123 270.988 125.759 271.315 126.365 271.728C126.978 272.137 127.538 272.599 128.044 273.114L126.289 275.096C125.873 274.676 125.443 274.285 124.999 273.924C124.555 273.562 124.089 273.293 123.599 273.116Z" fill="white"/>
<path d="M132.825 288.06L129.884 287.342L132.673 275.92L128.906 275L129.504 272.553L139.977 275.11L139.38 277.558L135.614 276.638L132.825 288.06Z" fill="white"/>
<path d="M140.659 289.521L142.799 275.405L145.792 275.858L143.652 289.975L140.659 289.521Z" fill="white"/>
<path d="M162.286 277.089L156.651 291.077L153.355 290.894L149.308 276.371L152.36 276.54L154.572 285.171C154.609 285.317 154.669 285.591 154.751 285.993C154.834 286.389 154.915 286.811 154.994 287.259C155.081 287.7 155.136 288.065 155.159 288.353C155.214 288.069 155.302 287.712 155.423 287.282C155.551 286.852 155.675 286.445 155.794 286.061C155.92 285.67 156.01 285.401 156.064 285.254L159.234 276.92L162.286 277.089Z" fill="white"/>
<path d="M173.65 290.617L165.44 291.072L164.651 276.816L172.861 276.362L172.998 278.838L167.811 279.125L167.984 282.255L172.811 281.988L172.948 284.465L168.121 284.732L168.324 288.408L173.512 288.121L173.65 290.617Z" fill="white"/>
<path d="M190.817 275.368C190.253 275.5 189.778 275.728 189.393 276.053C189.012 276.369 188.722 276.768 188.52 277.25C188.325 277.731 188.22 278.28 188.205 278.899C188.189 279.518 188.267 280.192 188.438 280.921C188.668 281.903 188.985 282.715 189.39 283.355C189.799 283.988 190.303 284.429 190.903 284.676C191.501 284.917 192.206 284.942 193.017 284.752C193.581 284.62 194.131 284.424 194.665 284.165C195.206 283.905 195.781 283.579 196.392 283.188L196.971 285.66C196.416 286.058 195.853 286.381 195.282 286.628C194.713 286.882 194.058 287.096 193.316 287.27C191.884 287.605 190.636 287.587 189.572 287.214C188.513 286.834 187.637 286.163 186.944 285.203C186.249 284.235 185.735 283.039 185.4 281.613C185.154 280.56 185.07 279.563 185.151 278.622C185.231 277.68 185.472 276.825 185.873 276.055C186.274 275.286 186.84 274.632 187.569 274.093C188.299 273.554 189.19 273.161 190.242 272.915C190.933 272.753 191.645 272.679 192.377 272.695C193.115 272.703 193.836 272.784 194.541 272.94L194.152 275.559C193.574 275.433 193.001 275.341 192.432 275.28C191.862 275.22 191.324 275.249 190.817 275.368Z" fill="white"/>
<path d="M212.589 280.683L209.754 281.717L207.641 275.929L202.33 277.868L204.443 283.656L201.599 284.694L196.703 271.282L199.547 270.244L201.466 275.501L206.777 273.562L204.859 268.305L207.693 267.271L212.589 280.683Z" fill="white"/>
<path d="M224.897 274.464L222.428 271.91L217.794 274.28L218.42 277.777L215.516 279.263L213.474 264.205L216.769 262.519L227.801 272.979L224.897 274.464ZM220.628 269.979L218.194 267.494C218.036 267.327 217.829 267.114 217.573 266.858C217.32 266.592 217.063 266.325 216.801 266.057C216.542 265.78 216.323 265.537 216.144 265.329C216.207 265.596 216.277 265.933 216.354 266.34C216.433 266.739 216.507 267.118 216.574 267.478C216.641 267.839 216.689 268.096 216.716 268.25L217.316 271.673L220.628 269.979Z" fill="white"/>
<path d="M225.922 256.934C226.999 256.214 227.973 255.75 228.845 255.543C229.722 255.332 230.507 255.375 231.199 255.672C231.891 255.969 232.505 256.518 233.041 257.319C233.403 257.86 233.616 258.402 233.682 258.946C233.748 259.489 233.707 260.014 233.56 260.519C233.413 261.025 233.204 261.498 232.934 261.937L239.882 264.773L237.09 266.641L231.211 263.982L229.872 264.877L232.918 269.431L230.401 271.114L222.464 259.247L225.922 256.934ZM227.122 259.115L226.359 259.625L228.504 262.832L229.316 262.289C230.149 261.732 230.652 261.195 230.825 260.681C230.999 260.157 230.905 259.624 230.543 259.083C230.167 258.52 229.704 258.25 229.155 258.272C228.612 258.291 227.934 258.572 227.122 259.115Z" fill="white"/>
<path d="M242.603 262.344L233.574 251.284L235.919 249.369L244.948 260.429L242.603 262.344Z" fill="white"/>
<path d="M253.872 252.162L251.707 254.277L243.491 245.866L240.717 248.575L238.957 246.773L246.669 239.239L248.43 241.042L245.656 243.751L253.872 252.162Z" fill="white"/>
<path d="M259.257 246.287L248.412 237.002L250.381 234.702L261.226 243.988L259.257 246.287Z" fill="white"/>
<path d="M270.12 232.059L265.349 238.756L253.721 230.471L258.492 223.774L260.513 225.214L257.498 229.445L260.051 231.264L262.856 227.327L264.876 228.766L262.071 232.703L265.07 234.84L268.084 230.608L270.12 232.059Z" fill="white"/>
<path d="M273.577 218.172C274.313 218.589 274.853 219.13 275.195 219.794C275.537 220.459 275.662 221.217 275.568 222.07C275.479 222.916 275.158 223.827 274.607 224.802C274.363 225.233 274.096 225.639 273.806 226.02C273.518 226.396 273.213 226.744 272.891 227.063C272.566 227.373 272.225 227.651 271.869 227.898L269.421 226.514C270.014 226.072 270.596 225.593 271.164 225.077C271.733 224.56 272.194 223.991 272.546 223.367C272.79 222.937 272.928 222.559 272.962 222.234C273 221.904 272.953 221.623 272.822 221.392C272.691 221.161 272.498 220.973 272.243 220.829C271.931 220.652 271.605 220.607 271.266 220.691C270.926 220.776 270.556 220.948 270.155 221.207C269.757 221.461 269.318 221.755 268.837 222.089C268.538 222.301 268.196 222.523 267.811 222.754C267.42 222.982 266.997 223.169 266.54 223.314C266.084 223.46 265.598 223.518 265.084 223.489C264.567 223.451 264.025 223.272 263.458 222.951C262.716 222.532 262.177 222.003 261.843 221.365C261.508 220.727 261.379 220.015 261.457 219.228C261.533 218.434 261.814 217.605 262.302 216.744C262.667 216.098 263.091 215.526 263.574 215.029C264.055 214.523 264.618 214.03 265.263 213.55L266.831 215.558C266.275 215.999 265.807 216.411 265.426 216.794C265.039 217.174 264.713 217.599 264.447 218.069C264.261 218.398 264.156 218.709 264.132 219.002C264.103 219.292 264.151 219.551 264.276 219.779C264.396 220.004 264.58 220.187 264.83 220.328C265.125 220.494 265.422 220.55 265.722 220.496C266.02 220.432 266.36 220.28 266.742 220.041C267.128 219.795 267.593 219.482 268.137 219.102C268.796 218.637 269.417 218.273 269.999 218.012C270.578 217.741 271.158 217.609 271.738 217.615C272.312 217.618 272.925 217.804 273.577 218.172Z" fill="white"/>
<path d="M47.0039 141.066L32.952 138.539L33.6383 134.723L47.6902 137.25L47.0039 141.066Z" fill="white"/>
<path d="M47.9632 111.55C49.4774 112.092 50.6394 112.835 51.4489 113.781C52.2545 114.719 52.7187 115.829 52.8415 117.11C52.9581 118.39 52.7404 119.802 52.1882 121.347L50.8276 125.154L37.3831 120.349L38.8916 116.128C39.3955 114.718 40.084 113.584 40.957 112.728C41.8239 111.869 42.8496 111.33 44.0343 111.111C45.2129 110.889 46.5225 111.036 47.9632 111.55ZM46.9785 114.538C45.9853 114.183 45.1173 114.039 44.3746 114.105C43.6279 114.163 42.9994 114.422 42.4891 114.883C41.981 115.338 41.5779 115.982 41.28 116.815L40.7377 118.333L49.4922 121.462L49.9293 120.238C50.4267 118.847 50.425 117.681 49.9242 116.742C49.4256 115.796 48.4437 115.062 46.9785 114.538Z" fill="white"/>
<path d="M55.415 97.1763C56.3966 97.6733 57.2293 98.2483 57.9131 98.901C58.5911 99.5509 59.094 100.273 59.4219 101.066C59.7527 101.854 59.8823 102.708 59.8106 103.628C59.7331 104.544 59.4311 105.522 58.9047 106.562C58.3782 107.602 57.7684 108.424 57.0752 109.029C56.3763 109.631 55.6099 110.035 54.7762 110.24C53.9454 110.44 53.0645 110.457 52.1336 110.292C51.2028 110.127 50.2437 109.795 49.2563 109.295C47.9378 108.627 46.8995 107.831 46.1414 106.907C45.3804 105.975 44.9578 104.922 44.8736 103.748C44.7893 102.574 45.0986 101.293 45.8016 99.9048C46.5016 98.5225 47.3467 97.5238 48.3369 96.9086C49.33 96.2877 50.4262 96.0109 51.6254 96.0782C52.8276 96.1396 54.0908 96.5057 55.415 97.1763ZM50.7076 106.472C51.5962 106.922 52.4188 107.2 53.1752 107.306C53.9288 107.403 54.6005 107.302 55.1901 107.002C55.774 106.699 56.2571 106.17 56.6395 105.415C57.0277 104.648 57.1711 103.94 57.0696 103.29C56.9623 102.638 56.6436 102.042 56.1135 101.504C55.5806 100.956 54.8698 100.458 53.9812 100.008C52.6453 99.3313 51.4675 99.0486 50.4479 99.1599C49.4283 99.2711 48.6288 99.8989 48.0494 101.043C47.664 101.804 47.5236 102.514 47.6279 103.172C47.7294 103.822 48.0452 104.423 48.5752 104.976C49.1023 105.521 49.8131 106.019 50.7076 106.472Z" fill="white"/>
<path d="M70.1649 88.4576L67.9911 91.6324L55.5702 90.6551L55.5206 90.7276C55.906 90.9599 56.2922 91.1967 56.6792 91.4381C57.0663 91.6794 57.4534 91.9208 57.8404 92.1622C58.2221 92.3998 58.6065 92.6393 58.9936 92.8807L64.5373 96.6765L63.009 98.9086L51.2286 90.8424L53.3858 87.6918L65.7125 88.6165L65.7511 88.5601C65.3785 88.3207 65.0067 88.0858 64.6357 87.8555C64.2648 87.6252 63.8938 87.3949 63.5229 87.1646C63.1556 86.9289 62.7884 86.6932 62.4211 86.4575L56.8451 82.6396L58.3844 80.3914L70.1649 88.4576Z" fill="white"/>
<path d="M78.0365 79.1492L74.8076 77.6675L71.3524 81.5604L73.207 84.5905L71.0418 87.03L63.6649 73.7449L66.1218 70.9768L80.2016 76.7098L78.0365 79.1492ZM72.4289 76.5225L69.2585 75.0927C69.0497 74.9944 68.7796 74.8722 68.4481 74.7259C68.116 74.5704 67.7793 74.4153 67.438 74.2603C67.0962 74.0962 66.8039 73.9499 66.561 73.8214C66.7174 74.0473 66.9053 74.3359 67.1245 74.6872C67.3432 75.0292 67.5494 75.3559 67.7432 75.6672C67.937 75.9785 68.0747 76.2008 68.1565 76.3343L69.9591 79.3053L72.4289 76.5225Z" fill="white"/>
<path d="M85.5759 72.7718L83.3295 74.8012L75.4475 66.0765L72.5707 68.6755L70.8817 66.8059L78.8818 59.5786L80.5708 61.4482L77.6939 64.0471L85.5759 72.7718Z" fill="white"/>
<path d="M97.2882 63.8069L90.647 68.6553L82.2285 57.1239L88.8697 52.2755L90.3323 54.2789L86.1362 57.3423L87.9846 59.8741L91.8888 57.0238L93.3514 59.0272L89.4471 61.8775L91.618 64.8511L95.8141 61.7877L97.2882 63.8069Z" fill="white"/>
<path d="M113.137 55.13L110.432 56.4674L106.77 49.0615C106.669 48.8572 106.548 48.6048 106.406 48.3043C106.262 47.9979 106.118 47.6843 105.974 47.3634C105.827 47.0366 105.696 46.742 105.58 46.4794C105.554 46.587 105.487 46.7833 105.381 47.0681C105.278 47.3443 105.178 47.5971 105.081 47.8267L104.194 49.7357L102.085 48.7523L104.585 43.4309L106.809 42.3315L113.137 55.13Z" fill="white"/>
<path d="M124.148 43.1828C124.548 44.2633 124.821 45.2594 124.964 46.1713C125.114 47.0809 125.113 47.9008 124.96 48.631C124.813 49.3589 124.498 49.9895 124.016 50.5226C123.533 51.0558 122.864 51.4808 122.01 51.7977C120.935 52.1961 119.952 52.2515 119.061 51.964C118.168 51.6704 117.366 51.072 116.656 50.1687C115.944 49.2593 115.322 48.0874 114.79 46.6529C114.253 45.2062 113.945 43.9146 113.864 42.7782C113.786 41.6334 113.987 40.6596 114.467 39.8567C114.947 39.0538 115.758 38.4407 116.9 38.0174C117.968 37.6212 118.949 37.57 119.842 37.8636C120.74 38.1488 121.547 38.745 122.266 39.6521C122.982 40.5531 123.609 41.73 124.148 43.1828ZM117.601 45.6105C117.979 46.6299 118.35 47.4611 118.713 48.104C119.08 48.7386 119.462 49.177 119.857 49.4192C120.252 49.6615 120.688 49.6943 121.164 49.5178C121.634 49.3435 121.941 49.0386 122.085 48.6033C122.233 48.1596 122.24 47.5775 122.104 46.8569C121.967 46.1302 121.708 45.2541 121.328 44.2286C120.95 43.2092 120.576 42.3792 120.206 41.7385C119.837 41.0978 119.451 40.6575 119.05 40.4175C118.652 40.1692 118.218 40.1322 117.748 40.3065C117.272 40.483 116.964 40.7951 116.825 41.2426C116.683 41.684 116.681 42.2681 116.818 42.9948C116.962 43.7192 117.223 44.5911 117.601 45.6105Z" fill="white"/>
<path d="M128.351 34.4646C129.441 34.2097 130.357 34.3968 131.099 35.0256C131.841 35.6545 132.373 36.6568 132.695 38.0325C133.016 39.4082 133.001 40.545 132.649 41.4429C132.297 42.3408 131.545 42.9245 130.391 43.1942C129.319 43.4446 128.414 43.2483 127.676 42.6052C126.937 41.9622 126.407 40.9528 126.085 39.5771C125.764 38.2014 125.774 37.0725 126.116 36.1902C126.465 35.3065 127.209 34.7313 128.351 34.4646ZM128.834 36.4476C128.523 36.5202 128.341 36.7701 128.287 37.1972C128.233 37.6243 128.3 38.2373 128.486 39.0361C128.673 39.8349 128.886 40.4169 129.125 40.7822C129.364 41.1475 129.639 41.2939 129.95 41.2213C130.26 41.1487 130.443 40.8988 130.497 40.4717C130.555 40.0367 130.491 39.4167 130.303 38.6116C130.116 37.8128 129.901 37.2347 129.657 36.8772C129.419 36.5182 129.145 36.375 128.834 36.4476ZM138.268 32.3574L133.805 48.0625L131.523 48.5959L135.986 32.8908L138.268 32.3574ZM139.386 37.7423C140.476 37.4874 141.393 37.6744 142.135 38.3033C142.877 38.9322 143.408 39.9345 143.73 41.3102C144.05 42.6795 144.034 43.8131 143.682 44.711C143.331 45.6089 142.578 46.1927 141.424 46.4623C140.353 46.7127 139.448 46.5164 138.709 45.8734C137.97 45.2303 137.441 44.2241 137.121 42.8548C136.799 41.4791 136.81 40.3501 137.152 39.4679C137.5 38.5842 138.245 38.0089 139.386 37.7423ZM139.87 39.7253C139.559 39.7979 139.377 40.0477 139.323 40.4749C139.269 40.902 139.335 41.515 139.522 42.3137C139.708 43.1125 139.921 43.6946 140.161 44.0599C140.4 44.4252 140.675 44.5716 140.985 44.499C141.296 44.4264 141.478 44.1765 141.532 43.7494C141.591 43.3144 141.526 42.6944 141.338 41.8893C141.151 41.0905 140.936 40.5123 140.692 40.1548C140.454 39.7959 140.18 39.6527 139.87 39.7253Z" fill="white"/>
<path d="M191.335 41.1366C191.14 42.2195 190.829 43.1822 190.4 44.0247C189.972 44.8607 189.425 45.5497 188.759 46.0916C188.099 46.6346 187.319 47.0039 186.417 47.1993C185.517 47.3883 184.493 47.3799 183.346 47.174C182.199 46.9682 181.236 46.6202 180.458 46.1299C179.68 45.6332 179.073 45.015 178.637 44.2754C178.208 43.5368 177.938 42.698 177.829 41.759C177.719 40.82 177.763 39.8058 177.958 38.7164C178.219 37.2618 178.683 36.0388 179.351 35.0473C180.026 34.0506 180.913 33.3433 182.013 32.9256C183.114 32.5079 184.429 32.4364 185.961 32.7113C187.486 32.9849 188.685 33.5077 189.559 34.2796C190.439 35.0526 191.019 36.0232 191.298 37.1912C191.585 38.3604 191.597 39.6755 191.335 41.1366ZM181.079 39.2962C180.903 40.2766 180.873 41.1444 180.988 41.8994C181.112 42.6491 181.402 43.2633 181.858 43.7421C182.316 44.2145 182.961 44.5254 183.794 44.6749C184.64 44.8267 185.36 44.7607 185.953 44.4769C186.548 44.1867 187.027 43.7104 187.39 43.0481C187.761 42.3805 188.035 41.5565 188.211 40.576C188.475 39.1022 188.408 37.8929 188.008 36.9481C187.609 36.0034 186.778 35.4177 185.516 35.1912C184.676 35.0406 183.956 35.1098 183.355 35.3988C182.762 35.6826 182.277 36.1577 181.899 36.8242C181.529 37.4854 181.256 38.3094 181.079 39.2962Z" fill="white"/>
<path d="M194.81 49.8605L191.957 49.0065L196.051 35.3287L203.891 37.6752L203.18 40.0515L198.193 38.559L197.137 42.0861L201.778 43.4749L201.069 45.8419L196.429 44.453L194.81 49.8605Z" fill="white"/>
<path d="M215.131 58.2516L217.261 46.7302L217.183 46.6896C217.071 46.9323 216.902 47.2992 216.675 47.7904C216.457 48.2788 216.22 48.7975 215.963 49.3464C215.706 49.8953 215.465 50.3863 215.239 50.8192L212.169 56.7076L209.771 55.4569L216.371 42.797L220.026 44.7023L217.974 55.9456L218.026 55.9726L226.252 47.9485L229.906 49.8538L223.305 62.5137L220.802 61.2089L223.927 55.2166C224.134 54.8183 224.38 54.3624 224.662 53.8488C224.95 53.3383 225.228 52.8553 225.495 52.3997C225.765 51.9384 225.967 51.5924 226.102 51.3617L226.024 51.3211L217.59 59.5339L215.131 58.2516Z" fill="white"/>
<path d="M233.128 59.5161L238.935 56.399L241.61 58.2653L232.736 62.7072L229.556 67.2643L227.089 65.5432L230.213 61.0662L231.375 51.124L234.066 53.0015L233.128 59.5161Z" fill="white"/>
<path d="M240.805 76.7359L250.727 66.4698L252.904 68.5737L242.982 78.8398L240.805 76.7359Z" fill="white"/>
<path d="M254.806 92.3072L252.332 89.3602L256.611 77.6589L256.555 77.5915C256.228 77.9003 255.896 78.2087 255.559 78.5167C255.223 78.8246 254.886 79.1326 254.55 79.4406C254.218 79.7444 253.884 80.0502 253.548 80.3582L248.402 84.678L246.663 82.6062L257.598 73.4266L260.053 76.3511L255.85 87.9759L255.894 88.0283C256.224 87.7336 256.55 87.4386 256.872 87.1432C257.193 86.8478 257.515 86.5524 257.837 86.257C258.162 85.9665 258.488 85.6761 258.814 85.3857L263.99 81.0407L265.741 83.1275L254.806 92.3072Z" fill="white"/>
<path d="M269.685 93.4785C269.37 92.9925 268.994 92.6232 268.558 92.3706C268.132 92.1198 267.657 91.9813 267.136 91.9552C266.618 91.9344 266.065 92.0217 265.478 92.2168C264.89 92.4119 264.283 92.7134 263.655 93.1211C262.808 93.6707 262.152 94.2442 261.686 94.8417C261.229 95.4411 260.986 96.0648 260.957 96.7127C260.933 97.3571 261.148 98.0287 261.601 98.7276C261.917 99.2136 262.287 99.6641 262.712 100.079C263.14 100.5 263.641 100.931 264.216 101.373L262.086 102.756C261.524 102.368 261.03 101.948 260.604 101.495C260.172 101.045 259.749 100.501 259.334 99.8622C258.533 98.6282 258.127 97.4477 258.117 96.3208C258.116 95.1957 258.451 94.1443 259.12 93.1664C259.794 92.185 260.746 91.2954 261.975 90.4977C262.881 89.9092 263.791 89.4931 264.704 89.2495C265.617 89.006 266.503 88.9427 267.363 89.0596C268.223 89.1766 269.03 89.487 269.784 89.9909C270.539 90.4948 271.21 91.2 271.798 92.1064C272.185 92.7016 272.495 93.3464 272.729 94.0408C272.971 94.7372 273.139 95.4435 273.231 96.1597L270.635 96.6809C270.557 96.0948 270.451 95.5238 270.315 94.9678C270.179 94.4118 269.969 93.9153 269.685 93.4785Z" fill="white"/>
<path d="M275.122 114.194C274.134 114.679 273.174 114.999 272.241 115.152C271.314 115.303 270.435 115.27 269.604 115.055C268.775 114.845 268.015 114.435 267.324 113.824C266.638 113.211 266.039 112.381 265.525 111.335C265.011 110.289 264.721 109.307 264.655 108.389C264.595 107.469 264.733 106.614 265.071 105.824C265.411 105.041 265.927 104.327 266.619 103.682C267.311 103.038 268.153 102.472 269.147 101.984C270.473 101.332 271.734 100.982 272.928 100.932C274.13 100.885 275.226 101.182 276.214 101.82C277.203 102.459 278.04 103.477 278.726 104.874C279.409 106.264 279.698 107.54 279.594 108.701C279.492 109.868 279.054 110.91 278.279 111.828C277.506 112.751 276.454 113.54 275.122 114.194ZM270.528 104.841C269.634 105.28 268.917 105.77 268.378 106.311C267.847 106.855 267.524 107.452 267.408 108.103C267.299 108.752 267.431 109.456 267.804 110.216C268.183 110.987 268.662 111.528 269.242 111.838C269.828 112.145 270.496 112.248 271.245 112.149C272.002 112.052 272.828 111.785 273.722 111.345C275.067 110.685 276.001 109.915 276.525 109.033C277.05 108.152 277.03 107.136 276.464 105.984C276.088 105.219 275.606 104.68 275.017 104.367C274.437 104.057 273.767 103.947 273.006 104.038C272.254 104.132 271.428 104.399 270.528 104.841Z" fill="white"/>
<path d="M271.078 124.91L280.638 118.135L280.611 118.052C280.361 118.148 279.984 118.293 279.479 118.487C278.982 118.685 278.45 118.891 277.884 119.106C277.317 119.32 276.802 119.504 276.338 119.657L270.032 121.738L269.184 119.169L282.742 114.695L284.034 118.609L274.725 125.239L274.743 125.294L286.234 125.276L287.526 129.19L273.967 133.664L273.083 130.984L279.5 128.866C279.927 128.725 280.421 128.569 280.981 128.398C281.544 128.233 282.079 128.08 282.588 127.94C283.103 127.797 283.49 127.69 283.747 127.619L283.72 127.535L271.948 127.543L271.078 124.91Z" fill="white"/>
<path d="M275.471 144.03L274.019 135.937L288.072 133.416L289.524 141.509L287.083 141.947L286.165 136.833L283.08 137.387L283.933 142.145L281.492 142.583L280.638 137.825L277.015 138.475L277.932 143.589L275.471 144.03Z" fill="white"/>
</svg>
