<?xml version="1.0" encoding="UTF-8" standalone="no"?>
<svg
   version="1.2"
   viewBox="14305 5191 4696 3997"
   preserveAspectRatio="xMidYMid"
   fill-rule="evenodd"
   stroke-width="28.222"
   stroke-linejoin="round"
   xml:space="preserve"
   id="svg40"
   sodipodi:docname="sc.svg"
   inkscape:export-filename="sc2.png"
   inkscape:export-xdpi="96"
   inkscape:export-ydpi="96"
   inkscape:version="1.3.2 (1:1.3.2+202404261509+091e20ef0f)"
   xmlns:inkscape="http://www.inkscape.org/namespaces/inkscape"
   xmlns:sodipodi="http://sodipodi.sourceforge.net/DTD/sodipodi-0.dtd"
   xmlns="http://www.w3.org/2000/svg"
   xmlns:svg="http://www.w3.org/2000/svg"><sodipodi:namedview
   id="namedview40"
   pagecolor="#ffffff"
   bordercolor="#000000"
   borderopacity="0.25"
   inkscape:showpageshadow="2"
   inkscape:pageopacity="0.0"
   inkscape:pagecheckerboard="0"
   inkscape:deskcolor="#d1d1d1"
   inkscape:zoom="0.29672254"
   inkscape:cx="2348.9958"
   inkscape:cy="1998.5"
   inkscape:window-width="3374"
   inkscape:window-height="1371"
   inkscape:window-x="0"
   inkscape:window-y="0"
   inkscape:window-maximized="1"
   inkscape:current-layer="svg40" />
 <defs
   class="EmbeddedBulletChars"
   id="defs10">
  <g
   id="bullet-char-template-57356"
   transform="scale(0.00048828125,-0.00048828125)">
   <path
   d="M 580,1141 L 1163,571 580,0 -4,571 580,1141 Z"
   id="path1" />
  </g>
  <g
   id="bullet-char-template-57354"
   transform="scale(0.00048828125,-0.00048828125)">
   <path
   d="M 8,1128 L 1137,1128 1137,0 8,0 8,1128 Z"
   id="path2" />
  </g>
  <g
   id="bullet-char-template-10146"
   transform="scale(0.00048828125,-0.00048828125)">
   <path
   d="M 174,0 L 602,739 174,1481 1456,739 174,0 Z M 1358,739 L 309,1346 659,739 1358,739 Z"
   id="path3" />
  </g>
  <g
   id="bullet-char-template-10132"
   transform="scale(0.00048828125,-0.00048828125)">
   <path
   d="M 2015,739 L 1276,0 717,0 1260,543 174,543 174,936 1260,936 717,1481 1274,1481 2015,739 Z"
   id="path4" />
  </g>
  <g
   id="bullet-char-template-10007"
   transform="scale(0.00048828125,-0.00048828125)">
   <path
   d="M 0,-2 C -7,14 -16,27 -25,37 L 356,567 C 262,823 215,952 215,954 215,979 228,992 255,992 264,992 276,990 289,987 310,991 331,999 354,1012 L 381,999 492,748 772,1049 836,1024 860,1049 C 881,1039 901,1025 922,1006 886,937 835,863 770,784 769,783 710,716 594,584 L 774,223 C 774,196 753,168 711,139 L 727,119 C 717,90 699,76 672,76 641,76 570,178 457,381 L 164,-76 C 142,-110 111,-127 72,-127 30,-127 9,-110 8,-76 1,-67 -2,-52 -2,-32 -2,-23 -1,-13 0,-2 Z"
   id="path5" />
  </g>
  <g
   id="bullet-char-template-10004"
   transform="scale(0.00048828125,-0.00048828125)">
   <path
   d="M 285,-33 C 182,-33 111,30 74,156 52,228 41,333 41,471 41,549 55,616 82,672 116,743 169,778 240,778 293,778 328,747 346,684 L 369,508 C 377,444 397,411 428,410 L 1163,1116 C 1174,1127 1196,1133 1229,1133 1271,1133 1292,1118 1292,1087 L 1292,965 C 1292,929 1282,901 1262,881 L 442,47 C 390,-6 338,-33 285,-33 Z"
   id="path6" />
  </g>
  <g
   id="bullet-char-template-9679"
   transform="scale(0.00048828125,-0.00048828125)">
   <path
   d="M 813,0 C 632,0 489,54 383,161 276,268 223,411 223,592 223,773 276,916 383,1023 489,1130 632,1184 813,1184 992,1184 1136,1130 1245,1023 1353,916 1407,772 1407,592 1407,412 1353,268 1245,161 1136,54 992,0 813,0 Z"
   id="path7" />
  </g>
  <g
   id="bullet-char-template-8226"
   transform="scale(0.00048828125,-0.00048828125)">
   <path
   d="M 346,457 C 273,457 209,483 155,535 101,586 74,649 74,723 74,796 101,859 155,911 209,963 273,989 346,989 419,989 480,963 531,910 582,859 608,796 608,723 608,648 583,586 532,535 482,483 420,457 346,457 Z"
   id="path8" />
  </g>
  <g
   id="bullet-char-template-8211"
   transform="scale(0.00048828125,-0.00048828125)">
   <path
   d="M -4,459 L 1135,459 1135,606 -4,606 -4,459 Z"
   id="path9" />
  </g>
  <g
   id="bullet-char-template-61548"
   transform="scale(0.00048828125,-0.00048828125)">
   <path
   d="M 173,740 C 173,903 231,1043 346,1159 462,1274 601,1332 765,1332 928,1332 1067,1274 1183,1159 1299,1043 1357,903 1357,740 1357,577 1299,437 1183,322 1067,206 928,148 765,148 601,148 462,206 346,322 231,437 173,577 173,740 Z"
   id="path10" />
  </g>
 
  
  
 
   
   
  
    
   
     
     
     
    
    
   
     
     
     
    
   
   
   
   
   
   
   
   
   
   
   
   
  
    
   
     
     
     
    
    
   
     
     
     
    
    
   
     
     
     
    
    
   
     
     
     
    </defs>
 <g
   class="com.sun.star.drawing.CustomShape"
   id="g12">
    <g
   id="id3">
     <rect
   class="BoundingBox"
   stroke="none"
   fill="none"
   x="17201"
   y="6692"
   width="422"
   height="441"
   id="rect10" />
     <path
   fill="#0070c0"
   stroke="none"
   d="m 17219,6912 v 0 c 0,-35 9,-70 26,-101 17,-31 41,-56 70,-74 30,-18 63,-27 97,-27 v 0 c 33,0 66,9 96,27 29,18 53,43 70,74 17,31 26,66 26,101 v 0 0 c 0,35 -9,70 -26,101 -17,31 -41,56 -70,74 -30,18 -63,27 -96,27 v 0 c -34,0 -67,-9 -97,-27 -29,-18 -53,-43 -70,-74 -17,-31 -26,-66 -26,-101 z"
   id="path11" />
     <path
   fill="none"
   stroke="#0070c0"
   stroke-width="35"
   stroke-linejoin="miter"
   d="m 17219,6912 v 0 c 0,-35 9,-70 26,-101 17,-31 41,-56 70,-74 30,-18 63,-27 97,-27 v 0 c 33,0 66,9 96,27 29,18 53,43 70,74 17,31 26,66 26,101 v 0 0 c 0,35 -9,70 -26,101 -17,31 -41,56 -70,74 -30,18 -63,27 -96,27 v 0 c -34,0 -67,-9 -97,-27 -29,-18 -53,-43 -70,-74 -17,-31 -26,-66 -26,-101 z"
   id="path12" />
    </g>
   </g><g
   class="com.sun.star.drawing.CustomShape"
   id="g14">
    <g
   id="id4">
     <rect
   class="BoundingBox"
   stroke="none"
   fill="none"
   x="15959"
   y="7540"
   width="422"
   height="441"
   id="rect12" />
     <path
   fill="#0070c0"
   stroke="none"
   d="m 15977,7760 v 0 c 0,-35 9,-70 26,-101 17,-31 41,-56 70,-74 30,-18 63,-27 97,-27 v 0 c 33,0 66,9 96,27 29,18 53,43 70,74 17,31 26,66 26,101 v 0 0 c 0,35 -9,70 -26,101 -17,31 -41,56 -70,74 -30,18 -63,27 -96,27 v 0 c -34,0 -67,-9 -97,-27 -29,-18 -53,-43 -70,-74 -17,-31 -26,-66 -26,-101 z"
   id="path13" />
     <path
   fill="none"
   stroke="#0070c0"
   stroke-width="35"
   stroke-linejoin="miter"
   d="m 15977,7760 v 0 c 0,-35 9,-70 26,-101 17,-31 41,-56 70,-74 30,-18 63,-27 97,-27 v 0 c 33,0 66,9 96,27 29,18 53,43 70,74 17,31 26,66 26,101 v 0 0 c 0,35 -9,70 -26,101 -17,31 -41,56 -70,74 -30,18 -63,27 -96,27 v 0 c -34,0 -67,-9 -97,-27 -29,-18 -53,-43 -70,-74 -17,-31 -26,-66 -26,-101 z"
   id="path14" />
    </g>
   </g><g
   class="com.sun.star.drawing.CustomShape"
   id="g16">
    <g
   id="id5">
     <rect
   class="BoundingBox"
   stroke="none"
   fill="none"
   x="16815"
   y="7095"
   width="422"
   height="441"
   id="rect14" />
     <path
   fill="#0070c0"
   stroke="none"
   d="m 16833,7315 v 0 c 0,-35 9,-70 26,-101 17,-31 41,-56 70,-74 30,-18 63,-27 97,-27 v 0 c 33,0 66,9 96,27 29,18 53,43 70,74 17,31 26,66 26,101 v 0 0 c 0,35 -9,70 -26,101 -17,31 -41,56 -70,74 -30,18 -63,27 -96,27 v 0 c -34,0 -67,-9 -97,-27 -29,-18 -53,-43 -70,-74 -17,-31 -26,-66 -26,-101 z"
   id="path15" />
     <path
   fill="none"
   stroke="#0070c0"
   stroke-width="35"
   stroke-linejoin="miter"
   d="m 16833,7315 v 0 c 0,-35 9,-70 26,-101 17,-31 41,-56 70,-74 30,-18 63,-27 97,-27 v 0 c 33,0 66,9 96,27 29,18 53,43 70,74 17,31 26,66 26,101 v 0 0 c 0,35 -9,70 -26,101 -17,31 -41,56 -70,74 -30,18 -63,27 -96,27 v 0 c -34,0 -67,-9 -97,-27 -29,-18 -53,-43 -70,-74 -17,-31 -26,-66 -26,-101 z"
   id="path16" />
    </g>
   </g><g
   class="com.sun.star.drawing.CustomShape"
   id="g18">
    <g
   id="id6">
     <rect
   class="BoundingBox"
   stroke="none"
   fill="none"
   x="16404"
   y="7497"
   width="422"
   height="441"
   id="rect16" />
     <path
   fill="#0070c0"
   stroke="none"
   d="m 16422,7717 v 0 c 0,-35 9,-70 26,-101 17,-31 41,-56 70,-74 30,-18 63,-27 97,-27 v 0 c 33,0 66,9 96,27 29,18 53,43 70,74 17,31 26,66 26,101 v 0 0 c 0,35 -9,70 -26,101 -17,31 -41,56 -70,74 -30,18 -63,27 -96,27 v 0 c -34,0 -67,-9 -97,-27 -29,-18 -53,-43 -70,-74 -17,-31 -26,-66 -26,-101 z"
   id="path17" />
     <path
   fill="none"
   stroke="#0070c0"
   stroke-width="35"
   stroke-linejoin="miter"
   d="m 16422,7717 v 0 c 0,-35 9,-70 26,-101 17,-31 41,-56 70,-74 30,-18 63,-27 97,-27 v 0 c 33,0 66,9 96,27 29,18 53,43 70,74 17,31 26,66 26,101 v 0 0 c 0,35 -9,70 -26,101 -17,31 -41,56 -70,74 -30,18 -63,27 -96,27 v 0 c -34,0 -67,-9 -97,-27 -29,-18 -53,-43 -70,-74 -17,-31 -26,-66 -26,-101 z"
   id="path18" />
    </g>
   </g><rect
   class="BoundingBox"
   stroke="none"
   fill="none"
   x="15163"
   y="7224"
   width="422"
   height="441"
   id="rect18" /><path
   fill="#c00000"
   stroke="none"
   d="m 15184,7478 v 0 c -6,-35 -4,-71 8,-104 11,-34 30,-63 56,-86 26,-22 57,-37 90,-43 v 0 c 33,-6 68,-2 100,10 32,12 60,33 82,60 22,28 37,60 43,95 v 0 0 c 6,35 4,71 -8,104 -11,33 -30,63 -56,85 -26,23 -57,38 -90,44 v 0 c -33,6 -68,2 -100,-10 -32,-12 -60,-33 -82,-61 -22,-27 -37,-60 -43,-94 z"
   id="path19"
   style="fill:#d9534f;fill-opacity:1" /><path
   fill="none"
   stroke="#c00000"
   stroke-width="35"
   stroke-linejoin="miter"
   d="m 15184,7478 v 0 c -6,-35 -4,-71 8,-104 11,-34 30,-63 56,-86 26,-22 57,-37 90,-43 v 0 c 33,-6 68,-2 100,10 32,12 60,33 82,60 22,28 37,60 43,95 v 0 0 c 6,35 4,71 -8,104 -11,33 -30,63 -56,85 -26,23 -57,38 -90,44 v 0 c -33,6 -68,2 -100,-10 -32,-12 -60,-33 -82,-61 -22,-27 -37,-60 -43,-94 z"
   id="path20"
   style="stroke:#d9534f;stroke-opacity:1" /><rect
   class="BoundingBox"
   stroke="none"
   fill="none"
   x="14900"
   y="7706"
   width="422"
   height="441"
   id="rect20" /><path
   fill="#c00000"
   stroke="none"
   d="m 14921,7960 v 0 c -6,-35 -4,-71 8,-104 11,-34 30,-63 56,-86 26,-22 57,-37 90,-43 v 0 c 33,-6 68,-2 100,10 32,12 60,33 82,60 22,28 37,60 43,95 v 0 0 c 6,35 4,71 -8,104 -11,33 -30,63 -56,85 -26,23 -57,38 -90,44 v 0 c -33,6 -68,2 -100,-10 -32,-12 -60,-33 -82,-61 -22,-27 -37,-60 -43,-94 z"
   id="path21"
   style="fill:#d9534f;fill-opacity:1" /><path
   fill="none"
   stroke="#c00000"
   stroke-width="35"
   stroke-linejoin="miter"
   d="m 14921,7960 v 0 c -6,-35 -4,-71 8,-104 11,-34 30,-63 56,-86 26,-22 57,-37 90,-43 v 0 c 33,-6 68,-2 100,10 32,12 60,33 82,60 22,28 37,60 43,95 v 0 0 c 6,35 4,71 -8,104 -11,33 -30,63 -56,85 -26,23 -57,38 -90,44 v 0 c -33,6 -68,2 -100,-10 -32,-12 -60,-33 -82,-61 -22,-27 -37,-60 -43,-94 z"
   id="path22"
   style="stroke:#d9534f;stroke-opacity:1" /><rect
   class="BoundingBox"
   stroke="none"
   fill="none"
   x="15991"
   y="6664"
   width="422"
   height="441"
   id="rect22" /><path
   fill="#c00000"
   stroke="none"
   d="m 16012,6918 v 0 c -6,-35 -4,-71 8,-104 11,-34 30,-63 56,-86 26,-22 57,-37 90,-43 v 0 c 33,-6 68,-2 100,10 32,12 60,33 82,60 22,28 37,60 43,95 v 0 0 c 6,35 4,71 -8,104 -11,33 -30,63 -56,85 -26,23 -57,38 -90,44 v 0 c -33,6 -68,2 -100,-10 -32,-12 -60,-33 -82,-61 -22,-27 -37,-60 -43,-94 z"
   id="path23"
   style="fill:#d9534f;fill-opacity:1" /><path
   fill="none"
   stroke="#c00000"
   stroke-width="35"
   stroke-linejoin="miter"
   d="m 16012,6918 v 0 c -6,-35 -4,-71 8,-104 11,-34 30,-63 56,-86 26,-22 57,-37 90,-43 v 0 c 33,-6 68,-2 100,10 32,12 60,33 82,60 22,28 37,60 43,95 v 0 0 c 6,35 4,71 -8,104 -11,33 -30,63 -56,85 -26,23 -57,38 -90,44 v 0 c -33,6 -68,2 -100,-10 -32,-12 -60,-33 -82,-61 -22,-27 -37,-60 -43,-94 z"
   id="path24"
   style="stroke:#d9534f;stroke-opacity:1" /><rect
   class="BoundingBox"
   stroke="none"
   fill="none"
   x="15465"
   y="6760"
   width="422"
   height="441"
   id="rect24" /><path
   fill="#c00000"
   stroke="none"
   d="m 15486,7014 v 0 c -6,-35 -4,-71 8,-104 11,-34 30,-63 56,-86 26,-22 57,-37 90,-43 v 0 c 33,-6 68,-2 100,10 32,12 60,33 82,60 22,28 37,60 43,95 v 0 0 c 6,35 4,71 -8,104 -11,33 -30,63 -56,85 -26,23 -57,38 -90,44 v 0 c -33,6 -68,2 -100,-10 -32,-12 -60,-33 -82,-61 -22,-27 -37,-60 -43,-94 z"
   id="path25"
   style="fill:#d9534f;fill-opacity:1" /><path
   fill="none"
   stroke="#c00000"
   stroke-width="35"
   stroke-linejoin="miter"
   d="m 15486,7014 v 0 c -6,-35 -4,-71 8,-104 11,-34 30,-63 56,-86 26,-22 57,-37 90,-43 v 0 c 33,-6 68,-2 100,10 32,12 60,33 82,60 22,28 37,60 43,95 v 0 0 c 6,35 4,71 -8,104 -11,33 -30,63 -56,85 -26,23 -57,38 -90,44 v 0 c -33,6 -68,2 -100,-10 -32,-12 -60,-33 -82,-61 -22,-27 -37,-60 -43,-94 z"
   id="path26"
   style="stroke:#d9534f;stroke-opacity:1" /><g
   class="com.sun.star.drawing.CustomShape"
   id="g28">
    <g
   id="id11">
     <rect
   class="BoundingBox"
   stroke="none"
   fill="none"
   x="17245"
   y="5877"
   width="424"
   height="440"
   id="rect26" />
     <path
   fill="#00b050"
   stroke="none"
   d="m 17270,6046 v 0 c 10,-34 27,-65 51,-90 25,-26 55,-44 88,-54 32,-9 67,-10 100,-1 v 0 c 32,9 62,26 86,51 23,25 40,56 49,90 8,34 8,70 -2,104 v 0 0 c -9,34 -26,65 -51,91 -24,25 -54,43 -87,53 -33,10 -67,10 -100,1 v 0 c -32,-8 -62,-26 -86,-51 -23,-24 -40,-55 -49,-89 -8,-34 -8,-70 1,-105 z"
   id="path27" />
     <path
   fill="none"
   stroke="#00b050"
   stroke-width="35"
   stroke-linejoin="miter"
   d="m 17270,6046 v 0 c 10,-34 27,-65 51,-90 25,-26 55,-44 88,-54 32,-9 67,-10 100,-1 v 0 c 32,9 62,26 86,51 23,25 40,56 49,90 8,34 8,70 -2,104 v 0 0 c -9,34 -26,65 -51,91 -24,25 -54,43 -87,53 -33,10 -67,10 -100,1 v 0 c -32,-8 -62,-26 -86,-51 -23,-24 -40,-55 -49,-89 -8,-34 -8,-70 1,-105 z"
   id="path28" />
    </g>
   </g><g
   class="com.sun.star.drawing.CustomShape"
   id="g30">
    <g
   id="id12">
     <rect
   class="BoundingBox"
   stroke="none"
   fill="none"
   x="18172"
   y="6778"
   width="424"
   height="440"
   id="rect28" />
     <path
   fill="#00b050"
   stroke="none"
   d="m 18197,6947 v 0 c 10,-34 27,-65 51,-90 25,-26 55,-44 88,-54 32,-9 67,-10 100,-1 v 0 c 32,9 62,26 86,51 23,25 40,56 49,90 8,34 8,70 -2,104 v 0 0 c -9,34 -26,65 -51,91 -24,25 -54,43 -87,53 -33,10 -67,10 -100,1 v 0 c -32,-8 -62,-26 -86,-51 -23,-24 -40,-55 -49,-89 -8,-34 -8,-70 1,-105 z"
   id="path29" />
     <path
   fill="none"
   stroke="#00b050"
   stroke-width="35"
   stroke-linejoin="miter"
   d="m 18197,6947 v 0 c 10,-34 27,-65 51,-90 25,-26 55,-44 88,-54 32,-9 67,-10 100,-1 v 0 c 32,9 62,26 86,51 23,25 40,56 49,90 8,34 8,70 -2,104 v 0 0 c -9,34 -26,65 -51,91 -24,25 -54,43 -87,53 -33,10 -67,10 -100,1 v 0 c -32,-8 -62,-26 -86,-51 -23,-24 -40,-55 -49,-89 -8,-34 -8,-70 1,-105 z"
   id="path30" />
    </g>
   </g><g
   class="com.sun.star.drawing.CustomShape"
   id="g32">
    <g
   id="id13">
     <rect
   class="BoundingBox"
   stroke="none"
   fill="none"
   x="18077"
   y="6283"
   width="424"
   height="440"
   id="rect30" />
     <path
   fill="#00b050"
   stroke="none"
   d="m 18102,6452 v 0 c 10,-34 27,-65 51,-90 25,-26 55,-44 88,-54 32,-9 67,-10 100,-1 v 0 c 32,9 62,26 86,51 23,25 40,56 49,90 8,34 8,70 -2,104 v 0 0 c -9,34 -26,65 -51,91 -24,25 -54,43 -87,53 -33,10 -67,10 -100,1 v 0 c -32,-8 -62,-26 -86,-51 -23,-24 -40,-55 -49,-89 -8,-34 -8,-70 1,-105 z"
   id="path31" />
     <path
   fill="none"
   stroke="#00b050"
   stroke-width="35"
   stroke-linejoin="miter"
   d="m 18102,6452 v 0 c 10,-34 27,-65 51,-90 25,-26 55,-44 88,-54 32,-9 67,-10 100,-1 v 0 c 32,9 62,26 86,51 23,25 40,56 49,90 8,34 8,70 -2,104 v 0 0 c -9,34 -26,65 -51,91 -24,25 -54,43 -87,53 -33,10 -67,10 -100,1 v 0 c -32,-8 -62,-26 -86,-51 -23,-24 -40,-55 -49,-89 -8,-34 -8,-70 1,-105 z"
   id="path32" />
    </g>
   </g><g
   class="com.sun.star.drawing.CustomShape"
   id="g34">
    <g
   id="id14">
     <rect
   class="BoundingBox"
   stroke="none"
   fill="none"
   x="17721"
   y="5878"
   width="424"
   height="440"
   id="rect32" />
     <path
   fill="#00b050"
   stroke="none"
   d="m 17746,6047 v 0 c 10,-34 27,-65 51,-90 25,-26 55,-44 88,-54 32,-9 67,-10 100,-1 v 0 c 32,9 62,26 86,51 23,25 40,56 49,90 8,34 8,70 -2,104 v 0 0 c -9,34 -26,65 -51,91 -24,25 -54,43 -87,53 -33,10 -67,10 -100,1 v 0 c -32,-8 -62,-26 -86,-51 -23,-24 -40,-55 -49,-89 -8,-34 -8,-70 1,-105 z"
   id="path33" />
     <path
   fill="none"
   stroke="#00b050"
   stroke-width="35"
   stroke-linejoin="miter"
   d="m 17746,6047 v 0 c 10,-34 27,-65 51,-90 25,-26 55,-44 88,-54 32,-9 67,-10 100,-1 v 0 c 32,9 62,26 86,51 23,25 40,56 49,90 8,34 8,70 -2,104 v 0 0 c -9,34 -26,65 -51,91 -24,25 -54,43 -87,53 -33,10 -67,10 -100,1 v 0 c -32,-8 -62,-26 -86,-51 -23,-24 -40,-55 -49,-89 -8,-34 -8,-70 1,-105 z"
   id="path34" />
    </g>
   </g><rect
   class="BoundingBox"
   stroke="none"
   fill="none"
   x="14305"
   y="5191"
   width="425"
   height="3812"
   id="rect35" /><path
   fill="none"
   stroke="#000000"
   stroke-width="141"
   stroke-linejoin="miter"
   d="m 14455,9000 63,-3414"
   id="path35"
   style="stroke:#808080;stroke-opacity:1" /><path
   fill="#000000"
   stroke="none"
   d="m 14525,5191 204,427 -423,-8 z"
   id="path36"
   style="fill:#7f7f7f;fill-opacity:1" /><rect
   class="BoundingBox"
   stroke="none"
   fill="none"
   x="14455"
   y="8763"
   width="4546"
   height="425"
   id="rect36" /><path
   fill="none"
   stroke="#000000"
   stroke-width="141"
   stroke-linejoin="miter"
   d="m 14455,8975 h 4150"
   id="path37"
   style="stroke:#808080;stroke-opacity:1" /><path
   fill="#000000"
   stroke="none"
   d="m 19000,8975 -423,212 v -423 z"
   id="path38"
   style="fill:#7f7f7f;fill-opacity:1" />
</svg>
